:SAMPLES-PER-SECOND 30
:FULLY-SPECIFIED
:DEGREES
795
root  25.6452 37.1589 1.62845 -28.832 -89.5575 24.2362
RightUpLeg  -24.3615 -5.46735 4.25606
RightLeg  20.5429 1.00758 0.12292
RightFoot  4.04405 0.390462 -2.70082
RightToes  -2.32831e-009 0 -3.6325e-017
Spine  5.33819 -0.766709 6.95568
Spine1  5.15522 -0.618676 0.533071
HEad  -0.931328 -26.488 -6.97898
LeftShoulder1  -0.688714 5.2567 -33.1305
LeftArm  19.1998 -7.74604 -46.9139
LeftForeArm  16.6183 -26.1278 -4.64102
LeftHand  0.00468034 9.06331 1.57351
RightShoulder  -1.02628 -6.31669 29.9341
RightArm  9.35563 -9.86412 38.9711
RightForeArm  14.592 10.699 4.71614
RightHand  -0.133502 9.45341 -1.4424
LeftUpLeg  20.8643 9.21568 0.278515
LeftLeg  23.2085 -9.58145 -4.20061
LeftFoot  -16.9976 -0.0936882 -4.32106
LeftToes  8.91272e-011 -1.70619e-011 7.36378e-012
796
root  24.1147 37.1404 1.62312 70.9463 -88.4825 -75.0241
RightUpLeg  -24.5236 -3.9179 5.45775
RightLeg  24.5299 -0.0284721 -0.242758
RightFoot  2.02592 0.608517 -5.06712
RightToes  -2.32831e-009 0 -3.6325e-017
Spine  5.41832 -0.678637 8.41388
Spine1  4.83208 -0.509646 1.9505
HEad  -0.652206 -25.8941 -7.03801
LeftShoulder1  -0.641858 5.14928 -32.8545
LeftArm  20.4106 -3.66465 -47.5253
LeftForeArm  17.8459 -22.3925 -4.51263
LeftHand  -0.0608521 8.66772 -0.405084
RightShoulder  -0.990218 -6.23254 29.7312
RightArm  8.28968 -9.29219 39.4273
RightForeArm  13.906 10.3522 4.47927
RightHand  -0.122946 9.96315 -1.33395
LeftUpLeg  16.7252 9.3611 2.78271
LeftLeg  33.4451 -10.9247 -7.27573
LeftFoot  -9.73998 0.222181 -10.2525
LeftToes  8.91272e-011 -1.70619e-011 7.36378e-012
797
root  22.7798 37.1829 1.59299 60.2804 -87.0616 -63.9857
RightUpLeg  -23.9201 -3.93443 6.5081
RightLeg  27.1565 -0.975606 -0.784378
RightFoot  -0.784266 0.53522 -5.8084
RightToes  -2.32831e-009 0 -3.6325e-017
Spine  6.25883 -1.06378 9.79884
Spine1  3.96781 -0.716692 3.07749
HEad  -0.584974 -26.361 -6.60293
LeftShoulder1  -0.647963 5.15915 -32.9818
LeftArm  15.7444 -1.39144 -47.4165
LeftForeArm  24.8586 -16.8241 -7.30997
LeftHand  -0.119593 9.56051 -1.79584
RightShoulder  -1.04694 -6.36782 30.0103
RightArm  7.90779 -8.17458 39.8826
RightForeArm  13.4226 10.218 4.43828
RightHand  -0.118 9.96126 -1.29792
LeftUpLeg  9.76368 6.39433 3.81068
LeftLeg  45.4172 -8.5087 -8.72636
LeftFoot  2.81231 1.59962 -13.2619
LeftToes  8.91272e-011 -1.70619e-011 7.36378e-012
798
root  21.5024 37.2289 1.58265 58.9313 -85.4585 -62.6701
RightUpLeg  -22.5458 -4.14322 7.77369
RightLeg  28.9749 -1.68508 -1.25914
RightFoot  -3.54343 0.353879 -5.54096
RightToes  -2.32831e-009 0 -3.6325e-017
Spine  6.43447 -1.21258 12.0275
Spine1  4.82063 -0.487461 3.28193
HEad  -1.53505 -27.4207 -5.60491
LeftShoulder1  -0.666699 5.18536 -33.485
LeftArm  7.1057 -0.537063 -46.6435
LeftForeArm  36.3319 -10.8722 -10.2066
LeftHand  -0.203625 10.099 -3.47244
RightShoulder  -1.09461 -6.47369 30.3247
RightArm  7.47845 -6.52433 40.7601
RightForeArm  13.4389 10.6117 4.35092
RightHand  -0.140987 9.6623 -1.48647
LeftUpLeg  2.92997 3.78932 5.03687
LeftLeg  55.4647 -6.00883 -8.8341
LeftFoot  13.907 2.77317 -12.726
LeftToes  8.91272e-011 -1.70619e-011 7.36378e-012
799
root  20.1627 37.4757 1.56654 60.1317 -85.5694 -64.1727
RightUpLeg  -19.8341 -3.90545 7.66578
RightLeg  29.0644 -1.87957 -1.3859
RightFoot  -5.80454 0.227232 -5.50191
RightToes  -2.32831e-009 0 -3.6325e-017
Spine  6.72672 -0.830283 13.0164
Spine1  5.29874 0.34037 2.43526
HEad  -2.16545 -28.3327 -4.55819
LeftShoulder1  -0.627301 5.08705 -33.45
LeftArm  0.936113 1.31889 -45.8543
LeftForeArm  44.5624 -7.1293 -10.589
LeftHand  -0.345765 11.2719 -5.32968
RightShoulder  -1.08005 -6.44103 30.2273
RightArm  7.77286 -5.2351 42.2354
RightForeArm  12.6265 11.5078 4.45126
RightHand  -0.123828 9.80752 -1.35111
LeftUpLeg  -2.6679 2.25279 5.09587
LeftLeg  62.5054 -4.10797 -7.95341
LeftFoot  10.3678 2.14498 -11.4472
LeftToes  8.91272e-011 -1.70619e-011 7.36378e-012
800
root  18.7811 37.8107 1.54712 67.9107 -86.5356 -72.1083
RightUpLeg  -16.7051 -3.65853 6.94417
RightLeg  28.1473 -1.44355 -1.08812
RightFoot  -7.61925 0.126508 -5.47134
RightToes  -2.32831e-009 0 -3.6325e-017
Spine  7.09473 -0.167714 13.0752
Spine1  4.9669 1.28977 1.56062
HEad  -2.47527 -28.9042 -4.1571
LeftShoulder1  -0.697053 5.244 -33.8906
LeftArm  -1.51891 4.04805 -44.1803
LeftForeArm  47.57 -5.84438 -10.1511
LeftHand  -0.484111 12.2655 -6.79144
RightShoulder  -1.02436 -6.33166 29.6781
RightArm  10.1429 -3.99335 43.7214
RightForeArm  11.7701 12.9858 4.8885
RightHand  -0.130695 10.2372 -1.39586
LeftUpLeg  -7.90909 1.43465 4.49238
LeftLeg  65.9681 -2.79755 -6.208
LeftFoot  7.78516 1.41995 -8.73116
LeftToes  8.91272e-011 -1.70619e-011 7.36378e-012
801
root  17.3796 38.1174 1.56214 94.7972 -87.6753 -99.3664
RightUpLeg  -13.2645 -3.07191 5.88586
RightLeg  27.0483 -0.774882 -0.709265
RightFoot  -9.34586 0.0337327 -5.56198
RightToes  -2.32831e-009 0 -3.6325e-017
Spine  7.16558 0.517673 13.696
Spine1  5.25038 2.54627 -0.674997
HEad  -3.01469 -29.2591 -3.95322
LeftShoulder1  -0.689642 5.23833 -33.5912
LeftArm  -2.59798 7.27012 -42.5133
LeftForeArm  46.599 -6.00631 -9.63959
LeftHand  -0.423966 11.2048 -6.9131
RightShoulder  -1.07271 -6.45081 29.8658
RightArm  14.4822 -2.48147 44.6923
RightForeArm  10.6249 15.8489 5.06026
RightHand  -0.229436 8.9576 -2.23615
LeftUpLeg  -12.1622 1.06086 3.60471
LeftLeg  66.2422 -1.94729 -4.18853
LeftFoot  6.17236 1.07163 -7.17689
LeftToes  8.91272e-011 -1.70619e-011 7.36378e-012
802
root  16.0073 38.3823 1.57393 136.881 -87.8981 -141.466
RightUpLeg  -10.1953 -3.51507 4.70354
RightLeg  25.7152 0.8172 -0.024558
RightFoot  -10.884 -0.0504929 -5.82629
RightToes  -2.32831e-009 0 -3.6325e-017
Spine  7.26495 1.15473 13.6222
Spine1  4.94849 3.38907 -1.94419
HEad  -3.35306 -29.2216 -4.59388
LeftShoulder1  -0.737268 5.34619 -33.8473
LeftArm  -1.36166 10.5502 -40.2613
LeftForeArm  43.0671 -7.24587 -9.69626
LeftHand  -0.402362 12.0306 -5.63989
RightShoulder  -1.05652 -6.42717 29.601
RightArm  18.8321 -1.43058 45.452
RightForeArm  9.0137 19.6635 4.67069
RightHand  -0.230697 9.4704 -2.19302
LeftUpLeg  -16.2817 0.438517 2.73085
LeftLeg  63.9511 -1.92151 -3.65136
LeftFoot  3.71048 0.65387 -5.11628
LeftToes  8.91272e-011 -1.70619e-011 7.36378e-012
803
root  14.6054 38.6247 1.57262 168.385 -86.8786 -173.01
RightUpLeg  -6.86701 -4.31752 3.57721
RightLeg  23.9342 2.90876 0.658359
RightFoot  -12.2385 -0.129034 -6.03974
RightToes  -2.32831e-009 0 -3.6325e-017
Spine  7.17339 1.66482 13.6983
Spine1  4.83449 4.09641 -3.713
HEad  -3.93359 -28.9377 -4.92427
LeftShoulder1  -0.733674 5.34875 -33.6021
LeftArm  0.435163 13.9419 -38.4863
LeftForeArm  38.991 -8.88798 -9.59149
LeftHand  -0.410832 13.1242 -4.85472
RightShoulder  -1.00536 -6.31 29.2796
RightArm  20.8678 -0.823499 46.1202
RightForeArm  8.52092 24.1307 4.67195
RightHand  -0.285225 10.1027 -2.53916
LeftUpLeg  -19.4511 0.168929 2.28287
LeftLeg  58.9271 -2.50055 -3.94606
LeftFoot  1.435 0.425085 -3.91463
LeftToes  8.91272e-011 -1.70619e-011 7.36378e-012
804
root  13.2362 38.7594 1.57018 -179.709 -85.7782 175.092
RightUpLeg  -3.84694 -4.89039 2.50588
RightLeg  22.5366 4.63738 0.93113
RightFoot  -13.8271 -0.220647 -5.83955
RightToes  -2.32831e-009 0 -3.6325e-017
Spine  7.23405 2.02908 13.2871
Spine1  4.4895 4.44428 -4.7103
HEad  -4.20645 -29.2629 -5.59373
LeftShoulder1  -0.785336 5.47956 -33.576
LeftArm  1.50828 16.922 -37.3074
LeftForeArm  35.989 -10.2297 -9.22869
LeftHand  -0.304456 12.9985 -3.42441
RightShoulder  -0.969557 -6.2316 28.9787
RightArm  20.223 -0.416648 46.0913
RightForeArm  10.4709 28.8705 5.6882
RightHand  -0.227283 9.89378 -2.12863
LeftUpLeg  -21.8177 -0.141806 2.0556
LeftLeg  51.6622 -3.20627 -3.91296
LeftFoot  -0.866693 0.38318 -4.10712
LeftToes  8.91272e-011 -1.70619e-011 7.36378e-012
805
root  11.876 38.8577 1.54944 -175.545 -85.1015 170.853
RightUpLeg  -0.533952 -5.76264 1.60128
RightLeg  20.7021 6.13268 1.05969
RightFoot  -15.0684 -0.298123 -6.02703
RightToes  -2.32831e-009 0 -3.6325e-017
Spine  7.32173 2.18712 12.5376
Spine1  4.2638 4.42643 -5.13252
HEad  -7.3687 -22.7626 -5.93186
LeftShoulder1  -0.795732 5.50016 -33.6625
LeftArm  1.85018 19.1337 -36.4231
LeftForeArm  35.2711 -10.8383 -8.94164
LeftHand  -0.341156 12.3414 -4.36766
RightShoulder  -0.931759 -6.15237 28.5976
RightArm  18.8439 -0.526983 45.9675
RightForeArm  12.2144 33.5404 6.75989
RightHand  -0.227558 10.2072 -2.09729
LeftUpLeg  -23.0467 -0.485263 2.12529
LeftLeg  42.0182 -3.9349 -3.40586
LeftFoot  -1.46412 0.316924 -3.56926
LeftToes  8.91272e-011 -1.70619e-011 7.36378e-012
